<svg xmlns="http://www.w3.org/2000/svg" viewBox="0 0 64 64">
  <rect x="8" y="12" width="48" height="44" rx="4" fill="#f59e0b"/>
  <rect x="8" y="12" width="48" height="44" rx="4" fill="none" stroke="#d97706" stroke-width="2"/>
  <rect x="16" y="24" width="8" height="8" rx="1" fill="#1a1a2e"/>
  <rect x="16" y="24" width="4" height="4" rx="0" fill="#fde68a"/>
  <rect x="40" y="24" width="8" height="8" rx="1" fill="#1a1a2e"/>
  <rect x="40" y="24" width="4" height="4" rx="0" fill="#fde68a"/>
  <rect x="20" y="37" width="4" height="4" rx="1" fill="#1a1a2e"/>
  <rect x="28" y="37" width="4" height="4" rx="1" fill="#1a1a2e"/>
  <rect x="36" y="37" width="4" height="4" rx="1" fill="#1a1a2e"/>
  <rect x="44" y="37" width="4" height="4" rx="1" fill="#1a1a2e"/>
  <rect x="28" y="4" width="8" height="10" rx="2" fill="#f59e0b"/>
  <rect x="30" y="2" width="4" height="4" rx="1" fill="#fde68a"/>
</svg>
